HIERARCHY
ROOT hips
{
	OFFSET -0.003675 0.299928 -0.021708
	CHANNELS 6 Xposition Yposition Zposition Xrotation Yrotation Zrotation
	JOINT LowerBack
	{
		OFFSET 0.000919 0.177588 0.009275
		CHANNELS 3 Xrotation Yrotation Zrotation
		JOINT spine
		{
			OFFSET 0.000919 0.177588 0.009275
			CHANNELS 3 Xrotation Yrotation Zrotation
			JOINT chest
			{
				OFFSET 0.000456 0.100015 0.004638
				CHANNELS 3 Xrotation Yrotation Zrotation
				JOINT neck
				{
					OFFSET 0.000456 0.100015 0.004638
					CHANNELS 3 Xrotation Yrotation Zrotation
					JOINT head
					{
						OFFSET 0.000924 0.155147 0.009274
						CHANNELS 6 Xposition Yposition Zposition Xrotation Yrotation Zrotation
						End Site
						{
							OFFSET 0.000000 0.153400 0.000000
						}
					}
				}
				JOINT shoulder.L
				{
					OFFSET 0.019937 0.078966 0.057518
					CHANNELS 6 Xposition Yposition Zposition Yrotation Xrotation Zrotation
					JOINT upper_arm.L
					{
						OFFSET 0.177024 -0.020465 -0.095062
						CHANNELS 6 Xposition Yposition Zposition Xrotation Yrotation Zrotation
						JOINT forearm.L
						{
							OFFSET 0.247100 -0.135500 -0.061800
							CHANNELS 3 Xrotation Yrotation Zrotation
							JOINT hand.L
							{
								OFFSET 0.217000 -0.143000 0.039300
								CHANNELS 3 Xrotation Yrotation Zrotation
								JOINT palm.01.L
								{
									OFFSET 0.021770 -0.038291 0.012954
									CHANNELS 6 Xposition Yposition Zposition Yrotation Xrotation Zrotation
									JOINT f_index.01.L
									{
										OFFSET 0.053215 -0.044137 0.008236
										CHANNELS 3 Xrotation Yrotation Zrotation
										JOINT f_index.02.L
										{
											OFFSET 0.036108 -0.024723 -0.010656
											CHANNELS 3 Xrotation Yrotation Zrotation
											JOINT f_index.03.L
											{
												OFFSET 0.021342 -0.014948 -0.010846
												CHANNELS 3 Xrotation Yrotation Zrotation
												End Site
												{
													OFFSET 0.015600 -0.009860 -0.013421
												}
											}
										}
									}
									JOINT thumb.01.L
									{
										OFFSET -0.009090 -0.002348 -0.024223
										CHANNELS 6 Xposition Yposition Zposition Xrotation Yrotation Zrotation
										JOINT thumb.02.L
										{
											OFFSET 0.019713 -0.035076 -0.011120
											CHANNELS 3 Xrotation Yrotation Zrotation
											JOINT thumb.03.L
											{
												OFFSET 0.024877 -0.021748 -0.005176
												CHANNELS 3 Xrotation Yrotation Zrotation
												End Site
												{
													OFFSET 0.016125 -0.013029 -0.001569
												}
											}
										}
									}
								}
								JOINT palm.02.L
								{
									OFFSET 0.032823 -0.025104 0.012281
									CHANNELS 6 Xposition Yposition Zposition Yrotation Xrotation Zrotation
									JOINT f_middle.01.L
									{
										OFFSET 0.055723 -0.038469 0.008037
										CHANNELS 3 Xrotation Yrotation Zrotation
										JOINT f_middle.02.L
										{
											OFFSET 0.038167 -0.027473 -0.015582
											CHANNELS 3 Xrotation Yrotation Zrotation
											JOINT f_middle.03.L
											{
												OFFSET 0.021707 -0.016587 -0.017037
												CHANNELS 3 Xrotation Yrotation Zrotation
												End Site
												{
													OFFSET 0.014112 -0.010584 -0.014294
												}
											}
										}
									}
								}
								JOINT palm.03.L
								{
									OFFSET 0.039230 -0.011402 0.008390
									CHANNELS 6 Xposition Yposition Zposition Yrotation Xrotation Zrotation
									JOINT f_ring.01.L
									{
										OFFSET 0.061796 -0.031470 0.007910
										CHANNELS 3 Xrotation Yrotation Zrotation
										JOINT f_ring.02.L
										{
											OFFSET 0.033092 -0.023401 -0.019127
											CHANNELS 3 Xrotation Yrotation Zrotation
											JOINT f_ring.03.L
											{
												OFFSET 0.021392 -0.015362 -0.017824
												CHANNELS 3 Xrotation Yrotation Zrotation
												End Site
												{
													OFFSET 0.008670 -0.007297 -0.014686
												}
											}
										}
									}
								}
								JOINT palm.04.L
								{
									OFFSET 0.043417 0.002450 0.002889
									CHANNELS 6 Xposition Yposition Zposition Yrotation Xrotation Zrotation
									JOINT f_pinky.01.L
									{
										OFFSET 0.069986 -0.026156 0.003627
										CHANNELS 3 Xrotation Yrotation Zrotation
										JOINT f_pinky.02.L
										{
											OFFSET 0.018520 -0.012813 -0.016429
											CHANNELS 3 Xrotation Yrotation Zrotation
											JOINT f_pinky.03.L
											{
												OFFSET 0.013822 -0.009796 -0.014947
												CHANNELS 3 Xrotation Yrotation Zrotation
												End Site
												{
													OFFSET 0.007238 -0.006103 -0.011657
												}
											}
										}
									}
								}
							}
						}
					}
				}
				JOINT shoulder.R
				{
					OFFSET -0.016662 0.078957 0.057696
					CHANNELS 6 Xposition Yposition Zposition Yrotation Xrotation Zrotation
					JOINT upper_arm.R
					{
						OFFSET -0.176972 -0.020537 -0.095144
						CHANNELS 6 Xposition Yposition Zposition Xrotation Yrotation Zrotation
						JOINT forearm.R
						{
							OFFSET -0.247100 -0.135500 -0.061800
							CHANNELS 3 Xrotation Yrotation Zrotation
							JOINT hand.R
							{
								OFFSET -0.217000 -0.143000 0.039300
								CHANNELS 3 Xrotation Yrotation Zrotation
								JOINT palm.01.R
								{
									OFFSET -0.021773 -0.038278 0.012988
									CHANNELS 6 Xposition Yposition Zposition Yrotation Xrotation Zrotation
									JOINT f_index.01.R
									{
										OFFSET -0.053212 -0.044139 0.008249
										CHANNELS 3 Xrotation Yrotation Zrotation
										JOINT f_index.02.R
										{
											OFFSET -0.036049 -0.024835 -0.010634
											CHANNELS 3 Xrotation Yrotation Zrotation
											JOINT f_index.03.R
											{
												OFFSET -0.021371 -0.014881 -0.010866
												CHANNELS 3 Xrotation Yrotation Zrotation
												End Site
												{
													OFFSET -0.015584 -0.009883 -0.013422
												}
											}
										}
									}
									JOINT thumb.01.R
									{
										OFFSET 0.009113 -0.002381 -0.024211
										CHANNELS 6 Xposition Yposition Zposition Xrotation Yrotation Zrotation
										JOINT thumb.02.R
										{
											OFFSET -0.019694 -0.035097 -0.011088
											CHANNELS 3 Xrotation Yrotation Zrotation
											JOINT thumb.03.R
											{
												OFFSET -0.024867 -0.021762 -0.005168
												CHANNELS 3 Xrotation Yrotation Zrotation
												End Site
												{
													OFFSET -0.016120 -0.013036 -0.001565
												}
											}
										}
									}
								}
								JOINT palm.02.R
								{
									OFFSET -0.032828 -0.025095 0.012286
									CHANNELS 6 Xposition Yposition Zposition Yrotation Xrotation Zrotation
									JOINT f_middle.01.R
									{
										OFFSET -0.055721 -0.038472 0.008040
										CHANNELS 3 Xrotation Yrotation Zrotation
										JOINT f_middle.02.R
										{
											OFFSET -0.038101 -0.027593 -0.015557
											CHANNELS 3 Xrotation Yrotation Zrotation
											JOINT f_middle.03.R
											{
												OFFSET -0.021730 -0.016530 -0.017054
												CHANNELS 3 Xrotation Yrotation Zrotation
												End Site
												{
													OFFSET -0.014096 -0.010608 -0.014293
												}
											}
										}
									}
								}
								JOINT palm.03.R
								{
									OFFSET -0.039192 -0.011488 0.008390
									CHANNELS 6 Xposition Yposition Zposition Yrotation Xrotation Zrotation
									JOINT f_ring.01.R
									{
										OFFSET -0.061839 -0.031387 0.007876
										CHANNELS 3 Xrotation Yrotation Zrotation
										JOINT f_ring.02.R
										{
											OFFSET -0.033068 -0.023437 -0.019125
											CHANNELS 3 Xrotation Yrotation Zrotation
											JOINT f_ring.03.R
											{
												OFFSET -0.021371 -0.015393 -0.017822
												CHANNELS 3 Xrotation Yrotation Zrotation
												End Site
												{
													OFFSET -0.008654 -0.007321 -0.014684
												}
											}
										}
									}
								}
								JOINT palm.04.R
								{
									OFFSET -0.043421 0.002443 0.002845
									CHANNELS 6 Xposition Yposition Zposition Yrotation Xrotation Zrotation
									JOINT f_pinky.01.R
									{
										OFFSET -0.069983 -0.026169 0.003599
										CHANNELS 3 Xrotation Yrotation Zrotation
										JOINT f_pinky.02.R
										{
											OFFSET -0.018501 -0.012842 -0.016428
											CHANNELS 3 Xrotation Yrotation Zrotation
											JOINT f_pinky.03.R
											{
												OFFSET -0.013806 -0.009821 -0.014946
												CHANNELS 3 Xrotation Yrotation Zrotation
												End Site
												{
													OFFSET -0.007226 -0.006121 -0.011655
												}
											}
										}
									}
								}
							}
						}
					}
				}
			}
		}
	}
	JOINT pelvis.L
	{
		OFFSET 0.000000 0.000000 0.000000
		CHANNELS 6 Xposition Yposition Zposition Xrotation Yrotation Zrotation
		JOINT thigh.L
		{
			OFFSET 0.101675 0.001054 -0.000000
			CHANNELS 3 Xrotation Yrotation Zrotation
			JOINT shin.L
			{
				OFFSET 0.000000 -0.534800 0.041000
				CHANNELS 3 Xrotation Yrotation Zrotation
				JOINT foot.L
				{
					OFFSET 0.000000 -0.452000 -0.044800
					CHANNELS 3 Xrotation Yrotation Zrotation
					JOINT toe.L
					{
						OFFSET -0.000000 -0.068500 0.109600
						CHANNELS 3 Xrotation Yrotation Zrotation
						End Site
						{
							OFFSET -0.000000 0.000000 0.067200
						}
					}
				}
				JOINT heel.L
				{
					OFFSET 0.000000 -0.452000 -0.044800
					CHANNELS 3 Xrotation Yrotation Zrotation
					JOINT heel.02.L
					{
						OFFSET -0.038000 -0.085200 0.016200
						CHANNELS 6 Xposition Yposition Zposition Xrotation Yrotation Zrotation
						End Site
						{
							OFFSET 0.080000 -0.000000 0.000000
						}
					}
				}
			}
		}
	}
	JOINT pelvis.R
	{
		OFFSET 0.000000 0.000000 0.000000
		CHANNELS 6 Xposition Yposition Zposition Xrotation Yrotation Zrotation
		JOINT thigh.R
		{
			OFFSET -0.094325 0.001054 0.000000
			CHANNELS 3 Xrotation Yrotation Zrotation
			JOINT shin.R
			{
				OFFSET 0.000000 -0.534800 0.041000
				CHANNELS 3 Xrotation Yrotation Zrotation
				JOINT foot.R
				{
					OFFSET 0.000000 -0.452000 -0.044800
					CHANNELS 3 Xrotation Yrotation Zrotation
					JOINT toe.R
					{
						OFFSET -0.000000 -0.068500 0.109600
						CHANNELS 3 Xrotation Yrotation Zrotation
						End Site
						{
							OFFSET -0.000000 0.000000 0.067200
						}
					}
				}
				JOINT heel.R
				{
					OFFSET 0.000000 -0.452000 -0.044800
					CHANNELS 3 Xrotation Yrotation Zrotation
					JOINT heel.02.R
					{
						OFFSET 0.038000 -0.085200 0.016200
						CHANNELS 6 Xposition Yposition Zposition Xrotation Yrotation Zrotation
						End Site
						{
							OFFSET -0.080000 0.000000 -0.000000
						}
					}
				}
			}
		}
	}
}
MOTION
Frames: 4
Frame Time: 0.041667
-0.000550 0.284440 -0.021220 7.816143 -61.940445 9.036202 -0.000000 -0.000000 0.000000 -0.000000 -0.000001 0.000000 -0.000000 -0.000001 -0.000000 0.000001 0.000000 0.000000 0.000924 0.155147 0.009274 21.687415 -0.018995 3.140787 0.019937 0.078966 0.057518 -31.789883 8.912487 44.085371 0.177025 -0.020465 -0.095062 -65.124296 15.838305 -52.158927 -55.351696 -24.808804 -37.243389 -0.000001 -0.000002 0.000002 0.021770 -0.038291 0.012954 -0.000000 -0.000003 -0.000000 -0.000000 -0.000001 0.000005 0.000000 0.000001 0.000005 -0.000001 0.000005 -0.000003 -0.009090 -0.002348 -0.024223 0.000002 -0.000003 0.000006 0.000002 -0.000002 0.000003 -0.000001 0.000001 0.000001 0.032823 -0.025104 0.012281 -0.000003 -0.000000 0.000005 -0.000001 0.000003 -0.000005 -0.000004 -0.000001 -0.000000 -0.000000 0.000004 0.000006 0.039230 -0.011402 0.008390 -0.000003 -0.000003 0.000003 0.000002 0.000003 -0.000000 0.000000 0.000002 0.000003 0.000004 0.000003 0.000001 0.043417 0.002450 0.002889 -0.000003 -0.000000 -0.000002 -0.000000 -0.000003 -0.000000 0.000000 0.000002 0.000000 -0.000000 -0.000001 -0.000001 -0.016662 0.078957 0.057696 -23.695478 9.109587 -29.896769 -0.176972 -0.020537 -0.095144 -28.523533 -0.304877 39.423736 -66.636145 -28.612841 77.644662 0.000003 0.000003 0.000002 -0.021773 -0.038278 0.012988 -0.000003 -0.000001 0.000002 -0.000002 -0.000003 0.000004 0.000001 -0.000002 -0.000001 -0.000000 0.000004 0.000003 0.009113 -0.002381 -0.024212 0.000000 -0.000003 0.000005 -0.000001 -0.000000 0.000000 -0.000003 -0.000002 -0.000003 -0.032828 -0.025095 0.012286 -0.000002 -0.000002 -0.000001 0.000001 0.000001 0.000002 0.000002 -0.000000 -0.000001 0.000000 0.000005 -0.000004 -0.039192 -0.011488 0.008390 -0.000004 -0.000004 0.000003 -0.000003 0.000001 -0.000002 0.000003 0.000000 -0.000000 -0.000003 0.000003 0.000003 -0.043421 0.002443 0.002844 -0.000004 -0.000001 0.000004 -0.000003 0.000004 -0.000002 -0.000001 -0.000006 0.000002 -0.000000 0.000001 0.000001 -0.000000 0.000000 -0.000000 -1.382605 0.394030 -6.167928 -0.203714 0.402390 5.535894 31.303580 0.651068 -6.581480 0.000002 0.000000 -0.000001 -0.000001 -0.000003 0.000000 0.000000 -0.000001 -0.000000 -0.038000 -0.085200 0.016200 0.000003 0.000003 -0.000004 -0.000000 -0.000000 -0.000000 -1.341300 0.389998 -4.934010 -33.088397 -0.046614 -3.005814 28.964083 1.986975 -20.488489 -0.000002 0.000001 0.000003 0.000004 0.000002 0.000000 -0.000002 0.000001 0.000000 0.038000 -0.085200 0.016200 -0.000002 -0.000000 0.000001 
-0.002069 0.276477 -0.017965 9.609193 -70.472717 11.127672 -0.000000 0.000001 -0.000000 -0.000000 0.000002 -0.000000 -0.000000 0.000000 0.000000 0.000000 0.000000 0.000000 0.000924 0.155148 0.009274 19.652906 -0.023662 7.596171 0.019937 0.078966 0.057518 -47.143031 12.635210 51.329398 0.177024 -0.020465 -0.095062 -65.007329 -6.484229 -38.070549 -10.600305 -15.505766 0.975594 0.000000 0.000002 0.000001 0.021770 -0.038291 0.012954 0.000000 0.000001 0.000001 0.000000 -0.000000 0.000001 -0.000002 0.000001 0.000008 -0.000000 -0.000000 0.000002 -0.009090 -0.002348 -0.024224 0.000003 -0.000000 0.000003 0.000002 -0.000001 -0.000001 -0.000001 0.000001 -0.000001 0.032823 -0.025104 0.012281 -0.000000 0.000003 0.000007 0.000001 -0.000002 -0.000005 -0.000003 0.000000 0.000001 -0.000001 -0.000003 0.000000 0.039230 -0.011402 0.008390 0.000001 0.000003 0.000008 0.000007 0.000000 -0.000000 -0.000000 0.000003 0.000004 -0.000000 -0.000002 0.000003 0.043417 0.002450 0.002889 -0.000000 0.000007 0.000001 -0.000000 -0.000005 -0.000000 0.000000 0.000001 0.000003 0.000000 0.000001 -0.000001 -0.016662 0.078957 0.057696 -38.244927 11.622106 -25.746647 -0.176972 -0.020537 -0.095144 -21.675175 2.644951 28.427172 -29.812273 21.991160 22.529603 0.000002 0.000001 0.000000 -0.021773 -0.038278 0.012988 -0.000001 -0.000003 0.000003 -0.000006 0.000005 0.000003 0.000002 0.000001 -0.000003 0.000001 -0.000003 -0.000002 0.009114 -0.002381 -0.024212 -0.000002 0.000000 -0.000001 0.000000 -0.000000 0.000000 0.000003 0.000002 -0.000006 -0.032828 -0.025095 0.012286 0.000002 0.000000 0.000001 0.000001 0.000001 -0.000003 0.000003 -0.000003 -0.000002 -0.000001 0.000001 -0.000002 -0.039192 -0.011488 0.008390 -0.000001 0.000002 0.000005 -0.000001 0.000004 -0.000002 -0.000004 -0.000000 0.000003 -0.000003 -0.000000 0.000002 -0.043421 0.002442 0.002844 0.000001 -0.000000 0.000005 -0.000005 0.000001 0.000001 -0.000002 -0.000006 0.000002 -0.000000 -0.000000 -0.000004 0.000000 0.000000 -0.000000 -1.578906 0.554364 -7.910863 3.725992 0.417544 5.523298 24.930665 0.828614 -8.388596 -0.000003 0.000002 -0.000001 -0.000003 0.000001 -0.000002 0.000000 -0.000000 0.000000 -0.038000 -0.085200 0.016200 0.000004 -0.000000 -0.000002 -0.000000 0.000000 -0.000000 -1.527647 0.547784 -6.677186 -26.613685 0.254102 1.297600 14.254185 2.387453 -24.875559 0.000000 -0.000002 0.000002 0.000001 0.000002 -0.000000 0.000003 -0.000003 0.000003 0.038000 -0.085200 0.016200 -0.000003 0.000001 0.000001 
0.000074 0.270800 -0.016966 23.312214 -77.983780 26.118821 0.000000 -0.000000 -0.000000 0.000000 0.000001 -0.000000 0.000000 0.000000 0.000000 0.000002 -0.000001 0.000000 0.000924 0.155148 0.009274 6.005136 -0.009870 8.312673 0.019937 0.078966 0.057518 -58.457779 16.485903 56.207399 0.177024 -0.020465 -0.095062 -40.953162 -17.996351 -20.974594 4.278757 8.182836 6.561721 -0.000001 0.000000 -0.000000 0.021770 -0.038291 0.012954 -0.000000 -0.000000 0.000001 -0.000001 -0.000001 0.000001 -0.000002 -0.000001 0.000005 -0.000000 0.000003 0.000002 -0.009090 -0.002348 -0.024224 0.000002 -0.000001 0.000000 -0.000001 -0.000001 0.000003 -0.000002 -0.000001 -0.000001 0.032823 -0.025104 0.012281 -0.000001 0.000001 0.000007 -0.000000 0.000003 -0.000007 -0.000003 -0.000005 0.000003 -0.000003 -0.000001 0.000001 0.039230 -0.011402 0.008390 0.000000 0.000000 0.000003 0.000003 0.000000 0.000001 0.000003 0.000003 -0.000001 0.000001 -0.000002 0.000003 0.043417 0.002450 0.002889 -0.000001 -0.000000 -0.000002 -0.000002 -0.000004 0.000003 0.000000 -0.000002 0.000002 0.000003 0.000003 -0.000001 -0.016662 0.078957 0.057696 -48.997168 13.807857 -19.811961 -0.176972 -0.020537 -0.095144 -14.251222 -2.222765 28.100816 -13.869478 18.908088 1.090012 0.000004 0.000000 0.000002 -0.021773 -0.038278 0.012988 0.000001 0.000003 -0.000002 -0.000001 0.000002 -0.000003 -0.000002 0.000001 -0.000001 -0.000001 -0.000001 0.000003 0.009113 -0.002381 -0.024212 -0.000000 -0.000002 -0.000001 0.000002 0.000000 0.000002 0.000001 0.000002 0.000003 -0.032828 -0.025095 0.012286 0.000004 0.000004 -0.000001 0.000002 0.000004 -0.000001 0.000003 -0.000002 -0.000000 0.000002 -0.000003 -0.000004 -0.039192 -0.011488 0.008390 0.000001 0.000005 -0.000000 -0.000003 0.000000 -0.000002 0.000003 0.000003 -0.000003 -0.000003 -0.000001 -0.000002 -0.043421 0.002443 0.002845 0.000000 0.000004 0.000000 -0.000004 0.000003 -0.000002 -0.000004 -0.000006 0.000000 -0.000000 0.000003 0.000000 0.000000 0.000000 -0.000000 -1.721345 0.724627 -9.715919 0.945934 0.362418 4.955493 26.021474 1.117874 -11.352154 0.000003 -0.000000 0.000002 0.000000 -0.000001 0.000000 0.000002 -0.000003 0.000000 -0.038000 -0.085200 0.016200 -0.000001 0.000002 -0.000002 -0.000000 0.000000 -0.000000 -1.660688 0.714894 -8.482484 -34.409673 0.608584 5.485996 21.919286 2.220087 -23.024713 0.000000 0.000000 0.000002 0.000003 -0.000000 0.000001 0.000005 -0.000001 0.000002 0.038000 -0.085200 0.016200 0.000002 0.000002 0.000003 
-0.006022 0.268820 -0.009765 -1.623925 -150.032154 -20.526146 0.000001 -0.000001 0.000000 0.000001 -0.000003 0.000001 0.000000 -0.000002 -0.000001 -0.000001 -0.000002 -0.000003 0.000924 0.155148 0.009274 6.442151 -0.007746 -3.416206 0.019937 0.078966 0.057518 -15.251457 6.848719 47.291151 0.177025 -0.020465 -0.095062 -36.374142 -17.525051 -19.612376 2.484450 5.426850 9.191220 -0.000002 0.000000 -0.000001 0.021770 -0.038291 0.012954 -0.000001 -0.000000 0.000001 0.000000 -0.000002 -0.000002 0.000001 -0.000000 0.000007 -0.000003 0.000003 -0.000000 -0.009090 -0.002348 -0.024223 0.000002 -0.000002 -0.000001 0.000000 -0.000001 0.000001 -0.000002 0.000002 -0.000004 0.032823 -0.025104 0.012281 -0.000003 -0.000003 0.000005 0.000000 0.000002 -0.000007 -0.000004 0.000002 -0.000000 0.000001 -0.000002 0.000004 0.039230 -0.011402 0.008390 -0.000001 -0.000002 0.000004 0.000003 0.000002 0.000001 -0.000001 0.000005 0.000003 0.000002 -0.000008 0.000002 0.043417 0.002450 0.002889 -0.000004 0.000001 -0.000003 0.000001 -0.000001 -0.000000 -0.000000 0.000003 -0.000001 0.000001 0.000002 0.000001 -0.016662 0.078957 0.057696 -15.338858 4.914415 -26.836385 -0.176972 -0.020537 -0.095144 -13.994827 -7.478576 38.635713 -22.766086 15.448477 27.009717 -0.000004 0.000004 0.000001 -0.021773 -0.038278 0.012988 -0.000001 0.000003 -0.000005 -0.000004 0.000001 -0.000001 -0.000001 0.000001 -0.000004 -0.000008 0.000002 0.000002 0.009113 -0.002381 -0.024211 0.000000 0.000001 -0.000001 0.000001 -0.000001 0.000002 0.000000 0.000001 0.000001 -0.032828 -0.025095 0.012286 0.000004 -0.000000 -0.000004 -0.000001 -0.000000 -0.000003 -0.000001 -0.000000 -0.000004 -0.000004 0.000002 -0.000007 -0.039192 -0.011488 0.008390 0.000002 0.000004 -0.000004 0.000001 0.000003 -0.000003 0.000002 -0.000000 -0.000000 0.000002 0.000002 0.000004 -0.043421 0.002443 0.002844 0.000000 0.000001 -0.000003 -0.000004 0.000006 -0.000001 0.000001 -0.000006 0.000004 -0.000000 0.000002 -0.000004 0.000000 0.000000 -0.000000 -1.689276 0.252442 -4.083476 2.154491 0.274318 3.736257 33.139272 0.758040 -7.669377 -0.000002 -0.000002 0.000004 0.000002 0.000001 0.000004 0.000003 -0.000001 0.000008 -0.038000 -0.085200 0.016200 -0.000001 0.000000 0.000005 0.000000 0.000000 -0.000000 -1.644988 0.249738 -2.849489 -40.387335 1.198566 13.012689 23.137838 1.610040 -16.474075 0.000002 -0.000001 0.000001 0.000003 -0.000004 0.000001 0.000007 0.000002 -0.000000 0.038000 -0.085200 0.016200 -0.000003 -0.000005 0.000001 
